<svg height="24" viewBox="0 0 24 24" width="24" xmlns="http://www.w3.org/2000/svg"><g fill="#ffffff"><path d="m1.91 9.92.18-.35c0-.06.06-.06.12-.06h4.1a.06.06 0 0 1 .06.06l-.18.3c0 .05-.06.05-.12.05z"/><path d="m.18 10.94.18-.36c0-.06.06-.06.12-.06h5.23a.06.06 0 0 1 .06.06l-.12.3c0 .06-.06.06-.12.06z"/><path d="m3 12a.06.06 0 0 1 -.08 0l.18-.3c0-.06.06-.06.12-.06h2.31a.06.06 0 0 1 .06.06v.3a.06.06 0 0 1 -.06.06z"/><path d="m14.93 9.69c-.72.18-1.19.29-1.9.53-.18.06-.18.06-.36-.12a1.84 1.84 0 0 0 -.54-.41 2 2 0 0 0 -2.08.18 2.53 2.53 0 0 0 -1.19 2.19 1.8 1.8 0 0 0 1.55 1.79 2.11 2.11 0 0 0 2-.77 2.54 2.54 0 0 0 .3-.42h-2.2c-.24 0-.3-.18-.24-.36.18-.35.42-1 .6-1.25.06-.06.11-.17.29-.17h4.17a5.44 5.44 0 0 1 -.06.95 4.52 4.52 0 0 1 -1 2.26 4.85 4.85 0 0 1 -3.27 2 3.84 3.84 0 0 1 -3.09-.77 3.9 3.9 0 0 1 -1.48-2.56 4.61 4.61 0 0 1 1-3.39 5.1 5.1 0 0 1 3.21-2 4.14 4.14 0 0 1 3 .53 3.47 3.47 0 0 1 1.31 1.61c.16.12.1.18-.02.18z"/><path d="m18.73 16.05a4 4 0 0 1 -2.79-1 3.65 3.65 0 0 1 -1.25-2.2 4.47 4.47 0 0 1 1-3.45 4.62 4.62 0 0 1 3.21-1.9 4.22 4.22 0 0 1 3.27.59 3.55 3.55 0 0 1 1.61 2.56 4.58 4.58 0 0 1 -1.31 3.92 5.44 5.44 0 0 1 -2.74 1.49 5 5 0 0 0 -1-.01zm2.74-4.64a.65.65 0 0 0 -.06-.36 1.89 1.89 0 0 0 -2.32-1.54 2.46 2.46 0 0 0 -2 2 2 2 0 0 0 1.07 2.2 2.12 2.12 0 0 0 1.9-.06 2.8 2.8 0 0 0 1.41-2.24z"/></g></svg>