<!DOCTYPE svg PUBLIC "-//W3C//DTD SVG 1.1//EN" "http://www.w3.org/Graphics/SVG/1.1/DTD/svg11.dtd">
<!-- Uploaded to: SVG Repo, www.svgrepo.com, Transformed by: SVG Repo Mixer Tools -->
<svg fill="#ffffff" version="1.1" id="Capa_1" xmlns="http://www.w3.org/2000/svg" xmlns:xlink="http://www.w3.org/1999/xlink" width="800px" height="800px" viewBox="0 0 35.006 35.007" xml:space="preserve" transform="matrix(-1, 0, 0, 1, 0, 0)">
<g id="SVGRepo_bgCarrier" stroke-width="0"/>
<g id="SVGRepo_tracerCarrier" stroke-linecap="round" stroke-linejoin="round"/>
<g id="SVGRepo_iconCarrier"> <g> <g id="UnTRIY_1_"> <g> <g> <path d="M22.58,20.657c-0.455,0.045-0.87,0.076-1.282,0.131c-0.636,0.086-1.269,0.006-1.889-0.093 c-0.535-0.084-1.055-0.272-1.577-0.434c-0.451-0.14-0.904-0.279-1.337-0.464c-0.633-0.271-1.249-0.583-1.871-0.879 c-0.124-0.06-0.246-0.123-0.38-0.188c-0.037,0.302-0.057,0.567-0.103,0.826c-0.042,0.237-0.114,0.471-0.167,0.708 c-0.083,0.37-0.18,0.738-0.238,1.113c-0.06,0.393-0.1,0.789-0.11,1.186c-0.007,0.268,0.035,0.541,0.086,0.807 c0.12,0.627,0.428,1.179,0.766,1.709c0.274,0.43,0.586,0.834,0.873,1.254c0.081,0.119,0.147,0.252,0.198,0.388 c0.076,0.2,0.214,0.325,0.402,0.412c0.449,0.206,0.841,0.481,1.135,0.89c0.083,0.115,0.199,0.206,0.336,0.346 c-0.657,0-1.259,0.004-1.862-0.007c-0.058-0.001-0.128-0.071-0.169-0.128c-0.086-0.117-0.184-0.238-0.228-0.375 c-0.076-0.234-0.281-0.218-0.45-0.281c-0.061-0.022-0.132-0.056-0.167-0.105c-0.44-0.62-0.875-1.244-1.312-1.866 c-0.372-0.53-0.744-1.062-1.117-1.592c-0.16-0.228-0.339-0.443-0.48-0.681c-0.054-0.092-0.043-0.233-0.034-0.351 c0.037-0.475,0.062-0.948-0.009-1.424c-0.021-0.14-0.012-0.286-0.042-0.423c-0.082-0.373-0.168-0.745-0.27-1.113 c-0.057-0.207-0.088-0.206-0.253-0.085c-0.556,0.408-1.164,0.722-1.795,0.996c-0.692,0.301-1.329,0.687-1.776,1.312 c-0.149,0.209-0.24,0.465-0.327,0.709c-0.152,0.43-0.284,0.866-0.419,1.303c-0.153,0.492-0.288,0.992-0.456,1.48 c-0.103,0.299-0.088,0.603-0.112,0.906c-0.014,0.18,0.065,0.29,0.197,0.374c0.372,0.237,0.631,0.567,0.819,0.961 c0.047,0.099,0.107,0.192,0.169,0.304c-0.048,0.004-0.093,0.01-0.138,0.01c-0.463,0.002-0.926,0.016-1.388-0.004 c-0.379-0.016-0.388,0.012-0.47-0.381c-0.073-0.348-0.264-0.57-0.555-0.74c-0.045-0.026-0.076-0.131-0.064-0.188 c0.071-0.358,0.156-0.713,0.237-1.069c0.05-0.22,0.101-0.439,0.153-0.658c0.086-0.362,0.173-0.724,0.259-1.086 c0.109-0.455,0.224-0.909,0.327-1.366c0.086-0.382,0.158-0.767,0.236-1.15c0.037-0.179,0.069-0.36,0.118-0.537 c0.016-0.057,0.066-0.116,0.117-0.149c0.468-0.297,0.775-0.744,1.089-1.182c0.468-0.652,0.667-1.389,0.625-2.188 c-0.024-0.462-0.072-0.924-0.11-1.385c-0.036-0.432,0.06-0.846,0.161-1.26c0.012-0.047,0.019-0.096,0.027-0.144 c0.047-0.259-0.07-0.366-0.32-0.274c-0.294,0.108-0.505,0.311-0.62,0.609c-0.148,0.381-0.193,0.778-0.232,1.181 c-0.029,0.301-0.127,0.596-0.194,0.893c-0.099,0.435-0.32,0.807-0.562,1.176c-0.247,0.378-0.369,0.8-0.328,1.274 c-0.037-0.084-0.073-0.17-0.118-0.272C5.5,19.575,5.428,19.736,5.363,19.9c-0.196,0.497-0.515,0.899-0.912,1.253 c-0.479,0.428-1.037,0.687-1.643,0.877c-0.413,0.129-0.813,0.303-1.211,0.475c-0.247,0.105-0.48,0.244-0.714,0.365 c0.141-0.336,0.386-1.043,0.365-1.055C0.919,22.346,0.607,22.891,0,23.198c0.069-0.173,0.146-0.32,0.188-0.477 c0.095-0.357,0.199-0.715,0.252-1.079c0.048-0.331,0.196-0.612,0.338-0.901c0.053-0.109,0.124-0.209,0.191-0.32 c-0.219,0.029-0.424,0.056-0.628,0.082c0.784-0.426,1.423-0.985,1.897-1.775c-0.429,0.116-0.824,0.225-1.218,0.331 c-0.006-0.017-0.011-0.034-0.017-0.051c0.567-0.294,1.096-0.647,1.533-1.113c0.275-0.293,0.52-0.619,0.749-0.95 c0.249-0.362,0.468-0.747,0.693-1.125c0.174-0.293,0.342-0.591,0.505-0.89c0.185-0.339,0.435-0.621,0.745-0.847 c0.231-0.169,0.477-0.31,0.733-0.445c0.389-0.206,0.799-0.25,1.208-0.305c0.249-0.034,0.515,0.03,0.769,0.075 c0.422,0.073,0.754-0.079,1.071-0.346c0.207-0.175,0.446-0.321,0.69-0.441c0.271-0.134,0.56-0.239,0.849-0.331 c0.208-0.066,0.428-0.112,0.645-0.129c0.397-0.029,0.796-0.05,1.193-0.037c0.394,0.013,0.791,0.041,1.177,0.117 c0.378,0.074,0.742,0.217,1.113,0.326c0.392,0.115,0.783,0.231,1.177,0.338c0.306,0.083,0.613,0.166,0.924,0.227 c0.27,0.053,0.546,0.08,0.82,0.112c0.172,0.02,0.346,0.043,0.518,0.035c0.326-0.017,0.652-0.042,0.974-0.089 c0.24-0.035,0.483-0.087,0.71-0.171c0.372-0.138,0.733-0.307,1.097-0.467c0.146-0.064,0.281-0.148,0.43-0.204 c0.312-0.118,0.593-0.273,0.777-0.568c0.176-0.28,0.447-0.438,0.752-0.568c-0.392-0.041-0.748-0.151-1.064-0.425 c0.336-0.092,0.697-0.08,0.973-0.322c0.254-0.225,0.514-0.443,0.777-0.668c-0.221-0.082-0.422-0.157-0.622-0.232 c0.007-0.015,0.015-0.031,0.021-0.046c0.197-0.034,0.4-0.048,0.59-0.106c0.295-0.09,0.582-0.205,0.869-0.318 c0.461-0.182,0.922-0.372,1.373-0.554c-0.307-0.189-0.627-0.428-0.701-0.839c0.423,0.047,0.832,0.124,1.242,0.132 c0.537,0.01,1.035-0.166,1.476-0.48c0.553-0.394,1.167-0.487,1.794-0.283c0.22,0.071,0.413,0.138,0.609,0.042 c0.271-0.133,0.523-0.307,0.785-0.463C31,6.635,31.032,6.629,31.105,6.602c-0.092,0.193-0.17,0.354-0.242,0.503 c0.24,0.098,0.488,0.17,0.707,0.295s0.406,0.302,0.582,0.482c-0.202-0.06-0.404-0.121-0.605-0.181 c-0.011,0.022-0.021,0.045-0.031,0.067c0.045,0.047,0.08,0.107,0.135,0.139c0.509,0.309,0.859,0.783,1.258,1.205 c0.419,0.444,0.816,0.909,1.224,1.363c0.229,0.257,0.466,0.509,0.694,0.767c0.035,0.039,0.064,0.095,0.07,0.146 c0.043,0.325,0.082,0.65,0.11,0.976c0.003,0.039-0.055,0.102-0.1,0.125c-0.373,0.19-0.769,0.309-1.187,0.338 c-0.029,0.002-0.074-0.027-0.093-0.054c-0.128-0.19-0.249-0.386-0.379-0.575c-0.032-0.047-0.086-0.089-0.14-0.11 c-0.35-0.135-0.699-0.263-1.049-0.39c-0.08-0.029-0.164-0.063-0.246-0.066c-0.396-0.015-0.799,0.018-1.188-0.04 c-0.271-0.04-0.521-0.203-0.783-0.304c-0.063-0.025-0.157-0.055-0.204-0.027c-0.434,0.249-0.738,0.623-0.926,1.077 c-0.163,0.397-0.266,0.818-0.418,1.22c-0.082,0.218-0.208,0.421-0.318,0.627c-0.246,0.454-0.485,0.911-0.744,1.358 c-0.278,0.484-0.353,1.019-0.45,1.555c-0.099,0.537-0.205,1.082-0.56,1.53c-0.011,0.014-0.015,0.031-0.025,0.06 c0.088,0.04,0.176,0.075,0.258,0.119c0.486,0.259,0.97,0.522,1.458,0.776c0.084,0.043,0.187,0.069,0.28,0.074 c0.25,0.01,0.38,0.176,0.517,0.353c0.19,0.241,0.399,0.467,0.595,0.705c0.041,0.05,0.07,0.122,0.072,0.187 c0.018,0.51,0.021,1.021,0.043,1.531c0.016,0.396,0.048,0.791,0.073,1.186c0.013,0.217,0.007,0.438,0.042,0.65 c0.064,0.396-0.119,0.693-0.342,0.987c-0.053,0.069-0.088,0.159-0.105,0.245c-0.038,0.187-0.164,0.287-0.314,0.377 c-0.416,0.25-0.83,0.503-1.244,0.755c-0.043,0.026-0.081,0.06-0.17,0.126c0.131-0.643,0.252-1.234,0.377-1.846 c0.176,0.066,0.338,0.127,0.494,0.187c0.099-0.11,0.191-0.217,0.303-0.344c-0.059-0.069-0.116-0.142-0.18-0.212 c-0.121-0.135-0.013-0.246,0.031-0.367c0.042-0.115,0.102-0.24,0.09-0.354c-0.045-0.402-0.119-0.801-0.178-1.201 c-0.042-0.291-0.064-0.584-0.119-0.871c-0.056-0.293-0.212-0.534-0.463-0.705c-0.132-0.088-0.27-0.172-0.41-0.245 c-0.062-0.032-0.14-0.045-0.211-0.048c-0.367-0.014-0.738,0.006-1.104-0.037c-0.385-0.047-0.762-0.149-1.143-0.225 c-0.094-0.02-0.158,0.008-0.158,0.123c0,0.502-0.058,1.012,0.016,1.502c0.077,0.519,0.016,1.031,0.064,1.543 c0.033,0.358,0.112,0.713,0.164,1.071c0.062,0.425,0.11,0.851,0.17,1.276c0.033,0.227,0.056,0.458,0.125,0.674 c0.028,0.092,0.156,0.158,0.25,0.222c0.287,0.201,0.606,0.365,0.864,0.599c0.287,0.261,0.519,0.58,0.8,0.902 c-0.637,0-1.229,0.004-1.82-0.006c-0.049-0.001-0.116-0.072-0.139-0.127c-0.113-0.283-0.203-0.581-0.485-0.753 c-0.089-0.053-0.191-0.125-0.282-0.12c-0.195,0.012-0.255-0.095-0.283-0.246c-0.055-0.301-0.099-0.604-0.152-0.904 c-0.082-0.451-0.172-0.901-0.252-1.353c-0.069-0.386-0.135-0.772-0.197-1.16c-0.045-0.278-0.15-0.534-0.25-0.798 c-0.232-0.613-0.389-1.257-0.577-1.888C22.658,20.907,22.613,20.763,22.58,20.657z"/> </g> </g> </g> </g> </g>
</svg>